<?xml version="1.0" encoding="utf-8"?>
<svg width="24" height="24" viewBox="0 0 18 19" xmlns="http://www.w3.org/2000/svg">
  <g style="transform: translate(1px, 1px)">
    <path d="M9,0a9,9,0,1,0,9,9A9,9,0,0,0,9,0Z" style="fill: oklch(var(--b1));"/>
    <g opacity="0.2"/>
    <g>
      <path fill="oklch(var(--bc))" style="stroke: rgb(0, 0, 0); stroke-width: 0.1px;" d="M 13.162 14.31 C 13.172 14.353 13.172 14.398 13.162 14.44 C 13.147 14.484 13.119 14.523 13.082 14.55 C 13.052 14.586 13.014 14.613 12.972 14.63 L 12.852 14.63 L 10.852 14.63 L 10.722 14.63 C 10.683 14.612 10.648 14.585 10.622 14.55 C 10.552 14.489 10.509 14.403 10.502 14.31 L 10.502 12.41 C 10.497 12.367 10.497 12.324 10.502 12.28 C 10.519 12.243 10.543 12.209 10.572 12.18 L 10.672 12.1 L 10.802 12.1 L 12.802 12.1 C 12.889 12.102 12.971 12.138 13.032 12.2 C 13.064 12.229 13.091 12.263 13.112 12.3 C 13.122 12.343 13.122 12.388 13.112 12.43 L 13.162 14.31 Z M 13.042 10.38 C 13.051 10.423 13.051 10.467 13.042 10.51 C 13.026 10.548 13.002 10.582 12.972 10.61 C 12.91 10.668 12.826 10.697 12.742 10.69 L 10.932 10.69 C 10.749 10.708 10.591 10.564 10.592 10.38 L 10.442 3.61 C 10.441 3.527 10.462 3.444 10.502 3.37 L 10.612 3.29 L 10.742 3.29 L 12.852 3.29 C 12.949 3.286 13.043 3.322 13.112 3.39 C 13.163 3.46 13.191 3.544 13.192 3.63 L 13.042 10.38 Z"/>
      <path fill="oklch(var(--bc))" style="stroke: rgb(0, 0, 0); stroke-width: 0.1px;" d="M 7.88 14.31 C 7.89 14.353 7.89 14.398 7.88 14.44 C 7.865 14.484 7.837 14.523 7.8 14.55 C 7.77 14.586 7.732 14.613 7.69 14.63 L 7.57 14.63 L 5.57 14.63 L 5.44 14.63 C 5.401 14.612 5.366 14.585 5.34 14.55 C 5.27 14.489 5.227 14.403 5.22 14.31 L 5.22 12.41 C 5.215 12.367 5.215 12.324 5.22 12.28 C 5.237 12.243 5.261 12.209 5.29 12.18 L 5.39 12.1 L 5.52 12.1 L 7.52 12.1 C 7.607 12.102 7.689 12.138 7.75 12.2 C 7.782 12.229 7.809 12.263 7.83 12.3 C 7.84 12.343 7.84 12.388 7.83 12.43 L 7.88 14.31 Z M 7.76 10.38 C 7.769 10.423 7.769 10.467 7.76 10.51 C 7.744 10.548 7.72 10.582 7.69 10.61 C 7.628 10.668 7.544 10.697 7.46 10.69 L 5.65 10.69 C 5.467 10.708 5.309 10.564 5.31 10.38 L 5.16 3.61 C 5.159 3.527 5.18 3.444 5.22 3.37 L 5.33 3.29 L 5.46 3.29 L 7.57 3.29 C 7.667 3.286 7.761 3.322 7.83 3.39 C 7.881 3.46 7.909 3.544 7.91 3.63 L 7.76 10.38 Z"/>
    </g>
  </g>
</svg>