<?xml version="1.0" encoding="utf-8"?>
<svg width="24" height="24" viewBox="0 0 18 19" xmlns="http://www.w3.org/2000/svg">
  <g style="transform: translate(1px, 1px)">
    <path d="M9,0a9,9,0,1,0,9,9A9,9,0,0,0,9,0Z" style="fill: oklch(var(--b1));"/>
    <g opacity="0.2"/>
    <g>
      <path fill="oklch(var(--bc))" style="stroke: rgb(0, 0, 0); stroke-width: 0.1px" d="M 10.276 13.981 C 10.286 14.024 10.286 14.069 10.276 14.111 C 10.261 14.155 10.233 14.194 10.196 14.221 C 10.166 14.257 10.128 14.284 10.086 14.301 L 9.966 14.301 L 7.966 14.301 L 7.836 14.301 C 7.797 14.283 7.762 14.256 7.736 14.221 C 7.666 14.16 7.623 14.074 7.616 13.981 L 7.616 12.081 C 7.611 12.038 7.611 11.995 7.616 11.951 C 7.633 11.914 7.657 11.88 7.686 11.851 L 7.786 11.771 L 7.916 11.771 L 9.916 11.771 C 10.003 11.773 10.085 11.809 10.146 11.871 C 10.178 11.9 10.205 11.934 10.226 11.971 C 10.236 12.014 10.236 12.059 10.226 12.101 L 10.276 13.981 Z M 10.156 10.051 C 10.165 10.094 10.165 10.138 10.156 10.181 C 10.14 10.219 10.116 10.253 10.086 10.281 C 10.024 10.339 9.94 10.368 9.856 10.361 L 8.046 10.361 C 7.863 10.379 7.705 10.235 7.706 10.051 L 7.556 3.281 C 7.555 3.198 7.576 3.115 7.616 3.041 L 7.726 2.961 L 7.856 2.961 L 9.966 2.961 C 10.063 2.957 10.157 2.993 10.226 3.061 C 10.277 3.131 10.305 3.215 10.306 3.301 L 10.156 10.051 Z"/>
    </g>
  </g>
</svg>